
<svg xmlns="http://www.w3.org/2000/svg" viewBox="0 0 93.03 26.07">
  <g fill="white">
    <path d="M25.27 7.58h1.17v4.57h5.88V7.58h1.17v10.3h-1.17v-4.76h-5.88v4.76h-1.17V7.58zM38.49 18.1a3 3 0 0 1-2.22-.77 2.8 2.8 0 0 1-.76-2v-4.52h1.15v4.53c0 1.24.66 1.86 2 1.86a2.74 2.74 0 0 0 1.43-.36 3.12 3.12 0 0 0 1.12-1.11v-4.92h1.16v7.07H41.2v-1.07a3.19 3.19 0 0 1-2.71 1.29zm5.92-7.29h1.11v1.1a3.13 3.13 0 0 1 2.55-1.32 2.66 2.66 0 0 1 1.39.3 1.77 1.77 0 0 1 .74.93 2.88 2.88 0 0 1 1.18-.93 3.7 3.7 0 0 1 1.46-.3 2.41 2.41 0 0 1 1.87.64 2.79 2.79 0 0 1 .58 1.92v4.73h-1.13v-4.6a2 2 0 0 0-.36-1.38 1.58 1.58 0 0 0-1.24-.4 2.53 2.53 0 0 0-2.12 1.13 3.75 3.75 0 0 1 0 .68v4.57h-1.08v-4.57a2.28 2.28 0 0 0-.33-1.4 1.52 1.52 0 0 0-1.22-.41 2.75 2.75 0 0 0-2.26 1.41v5h-1.14v-7.1zM59.6 18.1a3.1 3.1 0 0 1-2.06-.64 2.2 2.2 0 0 1-.75-1.76 2.22 2.22 0 0 1 .74-1.79 3.14 3.14 0 0 1 2.12-.63 5.35 5.35 0 0 1 2.67.63v-.53a1.72 1.72 0 0 0-.55-1.38 2.69 2.69 0 0 0-1.77-.5 5.79 5.79 0 0 0-2.34.47V11a4.88 4.88 0 0 1 1.13-.31 7.66 7.66 0 0 1 1.32-.11 3.6 3.6 0 0 1 2.52.76 2.68 2.68 0 0 1 .82 2.09v4.44H62.4V17a3.42 3.42 0 0 1-2.8 1.14zm.29-.93a3.28 3.28 0 0 0 1.45-.31 2.32 2.32 0 0 0 1-.9v-1.13a4.43 4.43 0 0 0-1.16-.49 4.65 4.65 0 0 0-1.29-.16 2.35 2.35 0 0 0-1.48.38 1.4 1.4 0 0 0-.45 1.14q0 1.47 2 1.47zm5.59-6.36h1.12v1.06a3.16 3.16 0 0 1 1.27-1 4.4 4.4 0 0 1 1.62-.3 2.73 2.73 0 0 1 2.1.73 2.74 2.74 0 0 1 .71 2v4.58h-1.15V13.4a2 2 0 0 0-.45-1.4 1.86 1.86 0 0 0-1.44-.5 3 3 0 0 0-2.63 1.5v4.91h-1.15v-7.1zM79.4 18.1a5.91 5.91 0 0 1-2.83-.67 5 5 0 0 1-2-1.9 5.37 5.37 0 0 1-.72-2.79 5.38 5.38 0 0 1 .72-2.8 5 5 0 0 1 2-1.9 5.92 5.92 0 0 1 2.83-.68 5.81 5.81 0 0 1 2.81.64 4.92 4.92 0 0 1 2 1.9 5.29 5.29 0 0 1 .73 2.8 5.28 5.28 0 0 1-.73 2.79 5 5 0 0 1-2 1.89 5.81 5.81 0 0 1-2.81.68zm0-1.7a3.75 3.75 0 0 0 1.83-.4 3.4 3.4 0 0 0 1.3-1.28 3.76 3.76 0 0 0 .47-1.98 3.75 3.75 0 0 0-.48-1.92 3.38 3.38 0 0 0-1.3-1.3 3.77 3.77 0 0 0-1.84-.45 3.86 3.86 0 0 0-1.85.45 3.38 3.38 0 0 0-1.3 1.3 3.75 3.75 0 0 0-.48 1.92 3.85 3.85 0 0 0 .48 1.94A3.45 3.45 0 0 0 77.57 16a3.78 3.78 0 0 0 1.83.44zm9.67 1.7a9.49 9.49 0 0 1-1.84-.18 6.24 6.24 0 0 1-1.48-.44v-1.61a7.08 7.08 0 0 0 1.57.53 7.57 7.57 0 0 0 1.61.18 2.62 2.62 0 0 0 1.53-.37 1.27 1.27 0 0 0 .28-1.77 2 2 0 0 0-.7-.53 21.2 21.2 0 0 0-1.42-.6A5.81 5.81 0 0 1 86.5 12a2.56 2.56 0 0 1-.66-1.8 2.51 2.51 0 0 1 .47-1.49 3 3 0 0 1 1.3-1 5 5 0 0 1 1.92-.35 7.54 7.54 0 0 1 1.59.15 7 7 0 0 1 1.37.42V9.5a6 6 0 0 0-2.63-.62 2.59 2.59 0 0 0-1.48.35 1.09 1.09 0 0 0-.52 1 1.13 1.13 0 0 0 .24.75 2.12 2.12 0 0 0 .63.49c.26.13.74.33 1.43.62a7.93 7.93 0 0 1 1.64.84 2.64 2.64 0 0 1 1.2 2.28 2.58 2.58 0 0 1-1 2.14 4.91 4.91 0 0 1-3 .75zm-76.67-.39a3.89 3.89 0 0 0 4.33-3.35 3.89 3.89 0 1 0-4.33 3.35zM15.42 8.91l4.94-6.4 1.58 1.23-4.94 6.4z"/>
    <path d="M21.7 4.74a2.4 2.4 0 0 0 2.64-2.13 2.41 2.41 0 0 0-4.8-.47 2.39 2.39 0 0 0 2.16 2.6zM5.72 5.9l1.6-1.2 3.22 4.34-1.6 1.2z"/>
    <path d="M5.18 7.24a2.38 2.38 0 1 0 1.45-4.53 2.42 2.42 0 0 0-3 1.55 2.37 2.37 0 0 0 1.57 3zM1.92 15.1l5.3-1.22.45 1.95-5.3 1.22z"/>
    <path d="M2.12 18.49A2.37 2.37 0 1 0 0 15.85a2.38 2.38 0 0 0 2.1 2.64zM5.33 22.66l3.9-4.95 1.57 1.24-3.9 4.94z"/>
    <path d="M5.36 26.05a2.38 2.38 0 1 0-2.05-2.68 2.41 2.41 0 0 0 2.05 2.68zm14.51-.58a2.38 2.38 0 1 0-2.13-2.63 2.4 2.4 0 0 0 2.13 2.63z"/>
    <path d="M15.52 18.35l1.62-1.17 2.65 3.64-1.62 1.17z"/>
  </g>
</svg>
