<svg width="452" height="449" viewBox="0 0 452 449" fill="none" xmlns="http://www.w3.org/2000/svg">
<path fill-rule="evenodd" clip-rule="evenodd" d="M139.505 48.6078L29.8211 257.211L26.2807 255.35L135.964 46.7462L139.505 48.6078Z" fill="white"/>
<path fill-rule="evenodd" clip-rule="evenodd" d="M70.4113 96.4221L32.7951 168.955L29.2442 167.113L66.8604 94.5806L70.4113 96.4221Z" fill="white"/>
<path fill-rule="evenodd" clip-rule="evenodd" d="M214.255 26.3389L136.751 47.0796L135.717 43.2156L213.221 22.4749L214.255 26.3389Z" fill="white"/>
<path fill-rule="evenodd" clip-rule="evenodd" d="M296.647 52.6962L224.211 28.9059L225.459 25.1056L297.895 48.8959L296.647 52.6962Z" fill="white"/>
<path fill-rule="evenodd" clip-rule="evenodd" d="M355.544 98.3322L301.545 56.9904L303.977 53.8144L357.976 95.1561L355.544 98.3322Z" fill="white"/>
<path fill-rule="evenodd" clip-rule="evenodd" d="M363.543 98.3568L138.621 51.806L139.432 47.889L364.354 94.4398L363.543 98.3568Z" fill="white"/>
<path fill-rule="evenodd" clip-rule="evenodd" d="M35.973 165.184L300.197 45.6608L301.845 49.3053L37.6216 168.829L35.973 165.184Z" fill="white"/>
<path fill-rule="evenodd" clip-rule="evenodd" d="M59.7324 80.1912L123.625 379.436L120 381.127L56.1074 81.8822L59.7324 80.1912Z" fill="white"/>
<path fill-rule="evenodd" clip-rule="evenodd" d="M382.949 281.449L51.7363 334.194L51.1072 330.244L382.32 277.498L382.949 281.449Z" fill="white"/>
<path fill-rule="evenodd" clip-rule="evenodd" d="M356.414 347.257L289.474 384.62L287.525 381.127L354.465 343.764L356.414 347.257Z" fill="white"/>
<path fill-rule="evenodd" clip-rule="evenodd" d="M206.481 404.027L287.842 384.19L288.789 388.076L207.429 407.913L206.481 404.027Z" fill="white"/>
<path fill-rule="evenodd" clip-rule="evenodd" d="M57.2495 334.305L23.1904 254.977L26.866 253.399L60.925 332.727L57.2495 334.305Z" fill="white"/>
<path fill-rule="evenodd" clip-rule="evenodd" d="M27.6562 252.135L205.057 400.547L202.49 403.615L25.0896 255.203L27.6562 252.135Z" fill="white"/>
<path fill-rule="evenodd" clip-rule="evenodd" d="M30.6153 254.244L347.603 339.15L346.568 343.014L29.5803 258.108L30.6153 254.244Z" fill="white"/>
<path fill-rule="evenodd" clip-rule="evenodd" d="M32.3537 183.23L29.5817 255.183L25.5846 255.029L28.3567 183.076L32.3537 183.23Z" fill="white"/>
<path fill-rule="evenodd" clip-rule="evenodd" d="M398.294 224.5L388.018 277.101L384.093 276.328L394.369 223.727L398.294 224.5Z" fill="white"/>
<path fill-rule="evenodd" clip-rule="evenodd" d="M390.825 157.128L396.911 190.659L393 191.5L386.914 157.969L390.825 157.128Z" fill="white"/>
<path d="M398.821 156.567C398.678 162.364 393.863 166.948 388.066 166.806C382.269 166.663 377.685 161.847 377.828 156.05C377.97 150.253 382.786 145.669 388.583 145.812C394.38 145.955 398.964 150.77 398.821 156.567Z" fill="white"/>
<path d="M389.435 100.217C389.014 117.333 374.797 130.866 357.681 130.444C340.566 130.023 327.032 115.806 327.454 98.6908C327.875 81.5751 342.092 68.0418 359.207 68.4633C376.323 68.8847 389.856 83.1013 389.435 100.217Z" fill="white"/>
<path d="M308.692 50.1397C308.447 60.0778 300.192 67.9359 290.254 67.6912C280.316 67.4465 272.458 59.1917 272.702 49.2536C272.947 39.3154 281.202 31.4574 291.14 31.7021C301.078 31.9468 308.936 40.2016 308.692 50.1397Z" fill="white"/>
<path d="M233.258 28.1278C233.013 38.0659 224.758 45.9239 214.82 45.6792C204.882 45.4345 197.024 37.1797 197.269 27.2416C197.514 17.3035 205.768 9.44542 215.706 9.69013C225.645 9.93484 233.503 18.1897 233.258 28.1278Z" fill="white"/>
<path d="M149.741 50.078C149.496 60.0161 141.242 67.8742 131.304 67.6295C121.365 67.3848 113.507 59.1299 113.752 49.1918C113.997 39.2537 122.252 31.3957 132.19 31.6404C142.128 31.8851 149.986 40.1399 149.741 50.078Z" fill="white"/>
<path d="M94.675 93.6617C94.3351 107.465 82.8701 118.379 69.0671 118.039C55.2642 117.699 44.3502 106.234 44.6901 92.4309C45.03 78.628 56.495 67.714 70.2979 68.0539C84.1009 68.3938 95.0148 79.8588 94.675 93.6617Z" fill="white"/>
<path d="M48.6699 170.603C48.4252 180.541 40.1704 188.399 30.2322 188.154C20.2941 187.91 12.4361 179.655 12.6808 169.717C12.9255 159.779 21.1803 151.921 31.1184 152.165C41.0565 152.41 48.9146 160.665 48.6699 170.603Z" fill="white"/>
<path d="M46.5532 256.552C46.3085 266.49 38.0537 274.348 28.1156 274.104C18.1775 273.859 10.3194 265.604 10.5642 255.666C10.8089 245.728 19.0637 237.87 29.0018 238.114C38.9399 238.359 46.798 246.614 46.5532 256.552Z" fill="white"/>
<path d="M85.6475 331.415C85.2804 346.322 72.8982 358.109 57.991 357.742C43.0839 357.375 31.2968 344.993 31.6639 330.086C32.0309 315.179 44.4131 303.391 59.3203 303.759C74.2275 304.126 86.0145 316.508 85.6475 331.415Z" fill="white"/>
<path d="M130.646 378.781C130.469 385.959 124.507 391.634 117.33 391.457C110.152 391.281 104.477 385.319 104.654 378.141C104.83 370.964 110.792 365.289 117.97 365.465C125.147 365.642 130.823 371.604 130.646 378.781Z" fill="white"/>
<path d="M242.796 397.775C242.225 420.963 222.964 439.299 199.775 438.728C176.586 438.157 158.251 418.896 158.822 395.707C159.393 372.518 178.654 354.182 201.843 354.753C225.032 355.324 243.367 374.586 242.796 397.775Z" fill="white"/>
<path d="M307.47 384.038C307.225 393.977 298.97 401.835 289.032 401.59C279.094 401.345 271.236 393.09 271.481 383.152C271.726 373.214 279.98 365.356 289.918 365.601C299.857 365.846 307.715 374.1 307.47 384.038Z" fill="white"/>
<path d="M383.554 341.948C383.187 356.855 370.805 368.642 355.898 368.275C340.991 367.908 329.204 355.525 329.571 340.618C329.938 325.711 342.32 313.924 357.227 314.291C372.134 314.658 383.921 327.04 383.554 341.948Z" fill="white"/>
<path d="M404.1 279.434C403.855 289.372 395.6 297.231 385.662 296.986C375.724 296.741 367.866 288.486 368.111 278.548C368.355 268.61 376.61 260.752 386.548 260.997C396.486 261.241 404.345 269.496 404.1 279.434Z" fill="white"/>
<path d="M135.36 188.427H142.08L160.392 215.699V188.427H167.504V227.571H160.784L142.472 200.243V227.571H135.36V188.427ZM191.603 228.411C186.6 228.411 182.643 227.16 179.731 224.659C176.819 222.158 175.363 218.667 175.363 214.187C175.363 209.782 176.651 206.291 179.227 203.715C181.803 201.139 185.48 199.851 190.259 199.851C193.395 199.851 196.064 200.448 198.267 201.643C200.507 202.838 202.187 204.48 203.307 206.571C204.427 208.624 204.987 210.976 204.987 213.627V216.875H182.083C182.568 220.87 186.04 222.867 192.499 222.867C194.216 222.867 195.971 222.718 197.763 222.419C199.555 222.12 201.123 221.71 202.467 221.187V226.619C201.197 227.142 199.555 227.571 197.539 227.907C195.56 228.243 193.581 228.411 191.603 228.411ZM198.323 212.059C198.248 209.931 197.483 208.288 196.027 207.131C194.608 205.974 192.648 205.395 190.147 205.395C187.683 205.395 185.741 205.992 184.323 207.187C182.904 208.382 182.157 210.006 182.083 212.059H198.323ZM223.656 228.411C220.706 228.411 218.466 227.59 216.936 225.947C215.405 224.304 214.64 221.99 214.64 219.003V206.067H210.608V200.691H214.64V192.627H221.696V200.691H228.136V206.067H221.696V218.107C221.696 219.824 222.013 221.056 222.648 221.803C223.282 222.512 224.44 222.867 226.12 222.867C227.277 222.867 228.416 222.606 229.536 222.083V227.459C227.93 228.094 225.97 228.411 223.656 228.411ZM234.257 200.691H241.313L246.801 218.891L252.177 200.691H258.337L263.713 218.891L269.201 200.691H276.257L267.465 227.571H260.969L255.257 209.315L249.545 227.571H243.049L234.257 200.691ZM295.053 228.411C291.917 228.411 289.155 227.851 286.765 226.731C284.413 225.574 282.584 223.931 281.277 221.803C279.971 219.638 279.317 217.08 279.317 214.131C279.317 211.256 279.952 208.755 281.221 206.627C282.528 204.462 284.376 202.8 286.765 201.643C289.155 200.448 291.917 199.851 295.053 199.851C298.189 199.851 300.933 200.448 303.285 201.643C305.675 202.8 307.523 204.462 308.829 206.627C310.136 208.755 310.789 211.256 310.789 214.131C310.789 217.08 310.136 219.638 308.829 221.803C307.523 223.931 305.675 225.574 303.285 226.731C300.933 227.851 298.189 228.411 295.053 228.411ZM295.053 222.867C297.629 222.867 299.683 222.064 301.213 220.459C302.744 218.816 303.509 216.707 303.509 214.131C303.509 211.406 302.744 209.278 301.213 207.747C299.72 206.179 297.667 205.395 295.053 205.395C292.44 205.395 290.368 206.179 288.837 207.747C287.344 209.278 286.597 211.406 286.597 214.131C286.597 216.707 287.363 218.816 288.893 220.459C290.424 222.064 292.477 222.867 295.053 222.867ZM318.607 200.691H325.439V205.003C326.522 203.547 328.052 202.464 330.031 201.755C332.047 201.046 334.343 200.691 336.919 200.691V206.067C334.194 206.067 331.823 206.496 329.807 207.355C327.828 208.176 326.447 209.483 325.663 211.275V227.571H318.607V200.691ZM343.652 186.187H350.708V212.507L361.404 200.691H369.692L357.708 213.851L371.036 227.571H362.748L350.708 215.139V227.571H343.652V186.187ZM396.008 228.411C392.088 228.411 388.542 227.571 385.368 225.891C382.232 224.174 379.75 221.766 377.92 218.667C376.128 215.568 375.232 212.022 375.232 208.027C375.232 204.032 376.128 200.486 377.92 197.387C379.75 194.288 382.232 191.88 385.368 190.163C388.542 188.446 392.088 187.587 396.008 187.587C399.891 187.587 403.4 188.446 406.536 190.163C409.71 191.88 412.192 194.288 413.984 197.387C415.814 200.486 416.728 204.032 416.728 208.027C416.728 212.022 415.814 215.568 413.984 218.667C412.192 221.728 409.71 224.118 406.536 225.835C403.4 227.552 399.891 228.411 396.008 228.411ZM396.008 221.971C398.51 221.971 400.787 221.411 402.84 220.291C404.894 219.134 406.518 217.51 407.712 215.419C408.944 213.291 409.56 210.827 409.56 208.027C409.56 205.264 408.963 202.838 407.768 200.747C406.574 198.619 404.95 196.976 402.896 195.819C400.843 194.662 398.547 194.083 396.008 194.083C393.47 194.083 391.155 194.662 389.064 195.819C387.011 196.976 385.387 198.619 384.192 200.747C382.998 202.838 382.4 205.264 382.4 208.027C382.4 210.827 382.998 213.291 384.192 215.419C385.424 217.51 387.067 219.134 389.12 220.291C391.211 221.411 393.507 221.971 396.008 221.971ZM434.475 228.411C432.16 228.411 429.864 228.187 427.587 227.739C425.347 227.328 423.499 226.768 422.043 226.059V219.955C423.909 220.851 425.869 221.523 427.923 221.971C429.976 222.419 431.992 222.643 433.971 222.643C436.472 222.643 438.376 222.176 439.683 221.243C440.989 220.31 441.643 219.022 441.643 217.379C441.643 216.222 441.344 215.27 440.747 214.523C440.149 213.739 439.272 213.067 438.115 212.507C436.957 211.91 435.184 211.144 432.795 210.211C429.136 208.718 426.485 207.056 424.843 205.227C423.2 203.398 422.379 201.12 422.379 198.395C422.379 196.267 422.957 194.382 424.115 192.739C425.272 191.096 426.896 189.827 428.987 188.931C431.077 188.035 433.485 187.587 436.211 187.587C438.451 187.587 440.429 187.774 442.147 188.147C443.901 188.483 445.619 189.024 447.299 189.771V195.707C444.051 194.139 440.765 193.355 437.443 193.355C435.053 193.355 433.205 193.803 431.899 194.699C430.592 195.558 429.939 196.79 429.939 198.395C429.939 199.552 430.237 200.504 430.835 201.251C431.432 201.96 432.216 202.576 433.187 203.099C434.195 203.584 435.987 204.368 438.563 205.451C441.176 206.534 443.229 207.598 444.723 208.643C446.253 209.688 447.392 210.92 448.139 212.339C448.923 213.72 449.315 215.419 449.315 217.435C449.315 220.907 448.064 223.614 445.563 225.555C443.061 227.459 439.365 228.411 434.475 228.411Z" fill="white"/>
</svg>
